<svg xmlns="http://www.w3.org/2000/svg" width="14" height="14" viewBox="0 0 14 14"  fill="currentColor">
<path fill-rule="evenodd" clip-rule="evenodd" d="M9.8636 5.40374L6.81827 9.40374C6.69294 9.56841 6.49894 9.66574 6.29227 9.66707H6.2876C6.08294 9.66707 5.8896 9.57241 5.76294 9.41107L4.1416 7.33974C3.91494 7.05041 3.9656 6.63107 4.2556 6.40441C4.54494 6.17707 4.96494 6.22774 5.1916 6.51841L6.28027 7.90907L8.80294 4.59641C9.0256 4.30374 9.4436 4.24641 9.7376 4.46974C10.0303 4.69307 10.0869 5.11107 9.8636 5.40374ZM7.00027 0.33374C3.31827 0.33374 0.333603 3.31841 0.333603 7.00041C0.333603 10.6817 3.31827 13.6671 7.00027 13.6671C10.6823 13.6671 13.6669 10.6817 13.6669 7.00041C13.6669 3.31841 10.6823 0.33374 7.00027 0.33374Z" fill="#EA7C69"/>
</svg>