<svg xmlns="http://www.w3.org/2000/svg" width="20" height="20" viewBox="0 0 20 20"  fill="currentColor">
  <path d="M11.9512 0.716477L12.1336 0.886483L12.8523 1.60523C13.0992 1.85095 13.423 2.00245 13.7675 2.03649L13.9162 2.04381H14.9442C16.548 2.04381 17.8595 3.29798 17.9511 4.87886L17.9562 5.05581V6.08281C17.9562 6.43261 18.0768 6.76889 18.2944 7.03627L18.3936 7.14648L19.1124 7.86528C20.2439 8.99168 20.2944 10.793 19.2578 11.9801L19.1226 12.1251L18.3942 12.8535C18.1492 13.0991 17.9976 13.4232 17.9636 13.7673L17.9562 13.9158V14.9448C17.9562 16.5485 16.7021 17.8591 15.1212 17.9507L14.9442 17.9558H13.9162C13.5677 17.9558 13.231 18.0769 12.9634 18.2951L12.8532 18.3945L12.1354 19.1113C11.0102 20.2442 9.20757 20.2945 8.02004 19.2574L7.8659 19.1131L7.14878 18.396C6.90039 18.1494 6.57595 17.9973 6.23245 17.9632L6.08423 17.9558H5.05523C3.45209 17.9558 2.14095 16.7023 2.04934 15.1217L2.04423 14.9448V13.9158C2.04423 13.5678 1.92293 13.2308 1.70485 12.9638L1.60553 12.8538L0.888399 12.1356C-0.244176 11.0095 -0.294414 9.20682 0.742606 8.02047L0.877897 7.87548L1.60402 7.14837C1.85096 6.89966 2.00279 6.57584 2.03689 6.23149L2.04423 6.08281V5.05581L2.04934 4.87888C2.13756 3.35671 3.35672 2.13718 4.87836 2.04893L5.05523 2.04381H6.08423C6.43271 2.04381 6.76948 1.92293 7.03652 1.70575L7.14653 1.60685L7.8647 0.887685C8.99106 -0.243793 10.7935 -0.293607 11.9512 0.716477ZM9.04164 1.84259L8.92692 1.94677L8.20567 2.66902C7.68842 3.18261 7.0043 3.48969 6.28205 3.5373L6.08423 3.54381H5.05523C4.26766 3.54381 3.61995 4.14796 3.55041 4.91825L3.54423 5.05581V6.08281C3.54423 6.81198 3.27962 7.51313 2.80233 8.06119L2.66692 8.20677L1.93976 8.93494C1.38794 9.48926 1.35581 10.3649 1.84346 10.959L1.94793 11.0739L2.66719 11.7941C3.18159 12.3097 3.48988 12.9951 3.53769 13.7179L3.54423 13.9158V14.9448C3.54423 15.7328 4.14793 16.3801 4.91774 16.4496L5.05523 16.4558H6.08423C6.81202 16.4558 7.51377 16.7207 8.06196 17.1981L8.20756 17.3335L8.93087 18.0568C9.48908 18.6119 10.365 18.6442 10.9585 18.1566L11.0733 18.0521L11.7942 17.3322C12.3109 16.818 12.9953 16.5101 13.7182 16.4623L13.9162 16.4558H14.9442C15.7329 16.4558 16.3805 15.8524 16.45 15.0823L16.4562 14.9448V13.9158C16.4562 13.187 16.721 12.484 17.1977 11.9383L17.3329 11.7935L18.0604 11.066C18.6122 10.511 18.6442 9.6358 18.1572 9.04198L18.0529 8.92714L17.331 8.20526C16.8171 7.68769 16.5103 7.00425 16.4627 6.28097L16.4562 6.08281V5.05581C16.4562 4.2674 15.8522 3.61955 15.0818 3.54999L14.9442 3.54381H13.9162C13.1871 3.54381 12.485 3.27942 11.9381 2.80246L11.7929 2.66714L11.105 1.97737L11.0651 1.94034C10.5108 1.38858 9.63496 1.35627 9.04164 1.84259ZM13.0966 12.0424C13.1666 12.1124 13.2266 12.1924 13.2666 12.2824C13.2966 12.3724 13.3166 12.4724 13.3166 12.5724C13.3166 12.6734 13.2966 12.7624 13.2666 12.8524C13.2266 12.9424 13.1666 13.0324 13.0966 13.1024C12.9566 13.2424 12.7666 13.3224 12.5666 13.3224C12.3666 13.3224 12.1766 13.2424 12.0366 13.1024C11.9666 13.0324 11.9166 12.9424 11.8766 12.8524C11.8366 12.7624 11.8166 12.6734 11.8166 12.5724C11.8166 12.4724 11.8366 12.3724 11.8766 12.2824C11.9166 12.1924 11.9666 12.1124 12.0366 12.0424C12.3166 11.7624 12.8166 11.7624 13.0966 12.0424ZM13.1003 6.89918C13.3665 7.16545 13.3907 7.58211 13.1729 7.87572L13.1003 7.95984L7.96026 13.0998C7.66736 13.3927 7.19249 13.3927 6.8996 13.0998C6.63333 12.8336 6.60912 12.4169 6.82698 12.1233L6.8996 12.0392L12.0396 6.89918C12.3325 6.60629 12.8074 6.60629 13.1003 6.89918ZM7.95653 6.90281C8.09653 7.04181 8.17653 7.23281 8.17653 7.43281C8.17653 7.53281 8.16653 7.62181 8.12653 7.71281C8.08653 7.80281 8.02653 7.88281 7.95653 7.96281C7.88653 8.03281 7.80653 8.08181 7.71653 8.12181C7.62653 8.16181 7.52653 8.18281 7.42653 8.18281C7.32653 8.18281 7.23653 8.16181 7.14653 8.12181C7.05653 8.08181 6.96653 8.03281 6.89653 7.96281C6.82653 7.88281 6.77653 7.80281 6.73653 7.71281C6.69653 7.62181 6.67653 7.53281 6.67653 7.43281C6.67653 7.33181 6.69653 7.23281 6.73653 7.14281C6.77653 7.05281 6.82653 6.96281 6.89653 6.90281C7.18653 6.62181 7.67653 6.62181 7.95653 6.90281Z"  />
</svg>