<svg xmlns="http://www.w3.org/2000/svg" width="18" height="20" viewBox="0 0 18 20"  fill="currentColor">
  <path d="M11.4735 0.000183105C11.5166 0.000183105 11.5588 0.00381161 11.5999 0.0107795L11.7362 0.0118831C11.9404 0.0118831 12.1358 0.0951401 12.2772 0.242429L17.3432 5.51843C17.4773 5.65811 17.5522 5.84424 17.5522 6.03788V15.2279C17.5522 17.7229 15.5279 19.8649 13.0722 19.8649H5.08424C2.50109 19.8649 0.500244 17.8254 0.500244 15.2279V4.49088C0.500244 2.02971 2.59695 0.0118831 5.08424 0.0118831L11.3474 0.0107373C11.3884 0.00379694 11.4306 0.000183105 11.4735 0.000183105ZM10.7232 1.51018L5.08424 1.51188C3.41278 1.51188 2.00024 2.87128 2.00024 4.49088V15.2279C2.00024 17.0033 3.336 18.3649 5.08424 18.3649H13.0722C14.68 18.3649 16.0522 16.9128 16.0522 15.2279L16.0512 6.98318L15.1754 6.98625C14.8419 6.98585 14.4626 6.98514 14.041 6.98418C12.2706 6.98044 10.8263 5.59366 10.7288 3.84759L10.7235 3.65918L10.7232 1.51018ZM8.64054 6.69078C9.02024 6.69078 9.33403 6.97294 9.3837 7.33901L9.39054 7.44078L9.39024 12.1952L10.9477 10.634C11.24 10.3405 11.7148 10.3395 12.0084 10.6317C12.2752 10.8974 12.3003 11.3141 12.083 11.6081L12.0106 11.6924L9.17159 14.5434L9.12783 14.5839C9.11745 14.5928 9.10684 14.6014 9.09599 14.6097L9.17159 14.5434C9.1348 14.5803 9.09512 14.6127 9.05327 14.6403C9.03875 14.6497 9.02325 14.6592 9.00739 14.6681C8.99394 14.6759 8.98073 14.6828 8.96737 14.6893C8.95096 14.697 8.93411 14.7044 8.91695 14.7112C8.89998 14.7182 8.88227 14.7245 8.86439 14.73C8.85077 14.7341 8.83704 14.7379 8.82316 14.7414C8.80312 14.7466 8.78301 14.7508 8.76278 14.7541C8.75083 14.7558 8.73876 14.7575 8.7266 14.7589C8.70309 14.7619 8.67934 14.7635 8.65557 14.764C8.65068 14.7637 8.64562 14.7638 8.64054 14.7638L8.62558 14.764C8.60115 14.7636 8.57673 14.7619 8.55242 14.7591L8.64054 14.7638C8.59969 14.7638 8.55959 14.7605 8.52051 14.7542C8.49855 14.7511 8.47684 14.7466 8.45534 14.7412C8.44429 14.7379 8.43289 14.7348 8.42161 14.7313C8.39979 14.7252 8.37843 14.7176 8.35738 14.7091C8.34617 14.7039 8.33505 14.6991 8.32409 14.6939C8.3065 14.6864 8.28919 14.6775 8.27217 14.6679C8.25712 14.6587 8.24198 14.6495 8.22722 14.6397C8.21538 14.6326 8.20401 14.6246 8.19282 14.6163L8.1851 14.6097C8.17425 14.6014 8.16363 14.5928 8.15326 14.5839L8.1086 14.5433L5.2706 11.6923C4.97838 11.3987 4.97947 10.9239 5.27303 10.6316C5.5399 10.366 5.95662 10.3427 6.24973 10.5613L6.33368 10.6341L7.89024 12.1982L7.89054 7.44078C7.89054 7.02657 8.22633 6.69078 8.64054 6.69078ZM12.2232 2.35118L12.2235 3.65918C12.2235 4.66575 13.0379 5.48206 14.0443 5.48419L15.2312 5.48418L12.2232 2.35118Z"  />
</svg>