<svg xmlns="http://www.w3.org/2000/svg" width="20" height="20" viewBox="0 0 20 20"  fill="currentColor">
  <path d="M7.59124 12.4563L7.91103 12.4577C12.5555 12.4981 15.1832 13.4362 15.1832 15.9983C15.1832 18.5062 12.6648 19.4737 8.22339 19.5547L7.59124 19.5603C2.74691 19.5603 0.000244141 18.6394 0.000244141 16.0183C0.000244141 13.3938 2.75784 12.4563 7.59124 12.4563ZM7.59124 13.9563C3.57389 13.9563 1.50024 14.6613 1.50024 16.0183C1.50024 17.3668 3.56892 18.0603 7.59124 18.0603C11.6089 18.0603 13.6832 17.3553 13.6832 15.9983C13.6832 14.6506 11.6127 13.9563 7.59124 13.9563ZM15.5869 11.7481C16.1675 11.7876 16.7447 11.8709 17.2994 11.9938C18.4874 12.2302 19.3707 12.6713 19.7754 13.5205C20.0743 14.1492 20.0743 14.8807 19.7755 15.5093C19.373 16.3563 18.4989 16.7943 17.3041 17.04C16.8984 17.1235 16.5019 16.8622 16.4184 16.4565C16.335 16.0508 16.5962 15.6542 17.0019 15.5708C17.7708 15.4127 18.2825 15.1563 18.4207 14.8655C18.5258 14.6442 18.5258 14.3857 18.421 14.1651C18.2819 13.8733 17.7675 13.6163 16.9909 13.4617C16.4936 13.3516 15.9907 13.2791 15.4852 13.2447C15.0719 13.2166 14.7597 12.8588 14.7878 12.4455C14.8159 12.0323 15.1737 11.72 15.5869 11.7481ZM7.59124 0.499817C10.4393 0.499817 12.7262 2.78642 12.7262 5.63382C12.7262 8.48203 10.4395 10.7688 7.59124 10.7688C4.74317 10.7688 2.45724 8.48217 2.45724 5.63382C2.45724 2.78628 4.74335 0.499817 7.59124 0.499817ZM14.0199 1.56942C16.2548 1.56942 18.0669 3.38189 18.0669 5.61642C18.0669 7.85163 16.2552 9.66342 14.0199 9.66342C13.6057 9.66342 13.2699 9.32763 13.2699 8.91342C13.2699 8.4992 13.6057 8.16342 14.0199 8.16342C15.4267 8.16342 16.5669 7.0232 16.5669 5.61642C16.5669 4.21025 15.4264 3.06942 14.0199 3.06942C13.6057 3.06942 13.2699 2.73363 13.2699 2.31942C13.2699 1.9052 13.6057 1.56942 14.0199 1.56942ZM7.59124 1.99982C5.57183 1.99982 3.95724 3.61466 3.95724 5.63382C3.95724 7.65385 5.5717 9.26882 7.59124 9.26882C9.61103 9.26882 11.2262 7.6536 11.2262 5.63382C11.2262 3.6149 9.6109 1.99982 7.59124 1.99982Z"  />
</svg>